{"title":"I Come with the Rain 2008 DVDrip English Klam","uid":6469306,"size":1793481449,"categoryP":"video","categoryS":"movies","magnet":"?xt=urn:btih:e8dcb5d7741659cdfb8b9bf23465237be0160b95&amp;dn=I+Come+with+the+Rain+2008+DVDrip+English+Klam&amp;tr=udp%3A%2F%2Ftracker.openbittorrent.com%3A80&amp;tr=udp%3A%2F%2Fopen.demonii.com%3A1337&amp;tr=udp%3A%2F%2Ftracker.coppersurfer.tk%3A6969&amp;tr=udp%3A%2F%2Fexodus.desync.com%3A6969","seeders":1,"leechers":0,"uploader":"Klambake","files":-1,"time":1308065168,"description":"With: Josh Hartnett, Takuya Kimura en Byung-Hun Lee\n\nVoormalig politieagent Kline (Josh Hartnett) uit Los Angeles raakte getraumatiseerd na het uitschakelen van een seriemoordenaar. Hij wordt door een machtige Filipijnse zakenman ingeschakeld om zijn vermiste zoon Shitao op te sporen. Kline vertrekt naar de Filipijnen, waar speurwerk hem naar Hong Kong leidt. Verscheurd tussen goed en kwaad, raakt Kline in het kruisvuur tussen mafia en de politie. Hij spoort Shitao op, die een geheimzinnige landloper geworden blijkt te zijn.\n\nEx-Los Angeles cop turned private eye Kline travels to Hong Kong in search of Shitao, the missing son of a powerful pharmaceutical conglomerate boss. Enlisting Meng Zi a friend and a former colleague now working for the Hong Kong Police, Kline follows a faint trail left by the ethereal Shitao. The path leads to local gangster Su Dongpo and his beautiful, drug addicted girlfriend Lili. But Kline is distracted from his search, haunted by memories of the serial killer...\n\n------------------ Dutch Friends ------------------\n\nYou can find my Friends at: http://www.Film-Test.nl \n                    \n------ They got my dutchs subs ---- and more ------\n\nGeneral:\n\nComplete name                    : I Come with the Rain\\I Come with the Rain.avi\nFormat                           : AVI\nFormat/Info                      : Audio Video Interleave\nFile size                        : 1.66 GiB\nDuration                         : 1h 49mn\nOverall bit rate                 : 2 172 Kbps\n\nVideo:\n\nFormat                           : MPEG-4 Visual\nFormat profile                   : Simple@L3\nFormat settings, BVOP            : No\nFormat settings, QPel            : No\nFormat settings, GMC             : No warppoints\nFormat settings, Matrix          : Default (H.263)\nCodec ID                         : XVID\nCodec ID/Hint                    : XviD\nDuration                         : 1h 49mn\nBit rate                         : 1 713 Kbps\nWidth                            : 720 pixels\nHeight                           : 304 pixels\nDisplay aspect ratio             : 2.35:1\nFrame rate                       : 25.000 fps\nColor space                      : YUV\nChroma subsampling               : 4:2:0\nBit depth                        : 8 bits\nScan type                        : Progressive\nBits/(Pixel*Frame)               : 0.313\nStream size                      : 1.31 GiB (79%)\nWriting library                  : XviD 1.1.2 (UTC 2006-11-01)\n\nAudio:\n\nFormat                           : AC-3\nFormat/Info                      : Audio Coding 3\nMode extension                   : CM (complete main)\nCodec ID                         : 2000\nDuration                         : 1h 49mn\nBit rate mode                    : Constant\nBit rate                         : 448 Kbps\nChannel(s)                       : 6 channels\nChannel positions                : Front: L C R, Side: L R, LFE\nSampling rate                    : 48.0 KHz\nBit depth                        : 16 bits\nStream size                      : 352 MiB (21%)\nAlignment                        : Aligned on interleaves\nInterleave, duration             : 32 ms (0.80 video frame)\nInterleave, preload duration     : 32 ms\n\n","torrent":{"xt":"urn:btih:e8dcb5d7741659cdfb8b9bf23465237be0160b95","amp;dn":"I+Come+with+the+Rain+2008+DVDrip+English+Klam","amp;tr":["udp%3A%2F%2Ftracker.openbittorrent.com%3A80","udp%3A%2F%2Fopen.demonii.com%3A1337","udp%3A%2F%2Ftracker.coppersurfer.tk%3A6969","udp%3A%2F%2Fexodus.desync.com%3A6969"],"infoHash":"e8dcb5d7741659cdfb8b9bf23465237be0160b95","infoHashBuffer":{"type":"Buffer","data":[232,220,181,215,116,22,89,205,251,139,155,242,52,101,35,123,224,22,11,149]},"announce":[],"urlList":[]}}